<?xml version="1.0" encoding="utf-8"?>
<!-- Generator: Adobe Illustrator 21.0.2, SVG Export Plug-In . SVG Version: 6.00 Build 0)  -->
<svg version="1.1" id="Capa_1" xmlns="http://www.w3.org/2000/svg" xmlns:xlink="http://www.w3.org/1999/xlink" x="0px" y="0px"
	 viewBox="0 0 406 345" style="enable-background:new 0 0 406 345;" xml:space="preserve">
<style type="text/css">
	.st0{fill:none;stroke:#FFFFFF;stroke-width:2;stroke-miterlimit:10;}
</style>
<g>
	<path class="st0" d="M157.6,108.4h40.5l-32.5-89.9h-40.5L39.6,252.8c0,0-4.3,17.1-25.8,15.8v11.8h98.5v-11.8
		c0,0-30.9-1.1-25.5-34.4l8.7-23.7h85.1l-15-41.3h-54.7l34.3-95L157.6,108.4z"/>
	<path class="st0" d="M161.2,118.3h41.9l57,159.3l57.5-156.1c0,0,12.3-35.4-24.6-38.2V71.5h98.5v11.8c0,0-21.8-4.2-31.8,35
		l-79.6,214.6h-40.7L161.2,118.3z"/>
</g>
<g>
</g>
<g>
</g>
<g>
</g>
<g>
</g>
<g>
</g>
<g>
</g>
<g>
</g>
<g>
</g>
<g>
</g>
<g>
</g>
<g>
</g>
</svg>
